<mxfile host="app.diagrams.net" modified="2023-12-11T05:19:54.166Z" agent="Mozilla/5.0 (Macintosh; Intel Mac OS X 10_15_7) AppleWebKit/605.1.15 (KHTML, like Gecko) Version/17.1.2 Safari/605.1.15" etag="xlzm_tJ41gb5EaVmPl-l" version="22.1.7" type="device">
  <diagram name="Page-1" id="JHN8DgGnnubVs7LV7Nyv">
    <mxGraphModel dx="2078" dy="1020" grid="1" gridSize="10" guides="1" tooltips="1" connect="1" arrows="1" fold="1" page="1" pageScale="1" pageWidth="850" pageHeight="1100" math="0" shadow="0">
      <root>
        <mxCell id="0" />
        <mxCell id="1" parent="0" />
        <mxCell id="8m-J2L2u7yOOzEYIu-hq-11" style="edgeStyle=orthogonalEdgeStyle;rounded=0;orthogonalLoop=1;jettySize=auto;html=1;exitX=0.5;exitY=1;exitDx=0;exitDy=0;entryX=0;entryY=0;entryDx=0;entryDy=0;" edge="1" parent="1" source="8m-J2L2u7yOOzEYIu-hq-1" target="8m-J2L2u7yOOzEYIu-hq-5">
          <mxGeometry relative="1" as="geometry" />
        </mxCell>
        <mxCell id="8m-J2L2u7yOOzEYIu-hq-12" style="edgeStyle=orthogonalEdgeStyle;rounded=0;orthogonalLoop=1;jettySize=auto;html=1;exitX=0.5;exitY=1;exitDx=0;exitDy=0;entryX=0;entryY=0;entryDx=0;entryDy=0;" edge="1" parent="1" source="8m-J2L2u7yOOzEYIu-hq-1" target="8m-J2L2u7yOOzEYIu-hq-10">
          <mxGeometry relative="1" as="geometry" />
        </mxCell>
        <mxCell id="8m-J2L2u7yOOzEYIu-hq-1" value="SEED Ranges Input" style="rounded=0;whiteSpace=wrap;html=1;" vertex="1" parent="1">
          <mxGeometry x="290" y="30" width="110" height="60" as="geometry" />
        </mxCell>
        <mxCell id="8m-J2L2u7yOOzEYIu-hq-6" value="" style="group" vertex="1" connectable="0" parent="1">
          <mxGeometry x="360" y="130" width="80" height="30" as="geometry" />
        </mxCell>
        <mxCell id="8m-J2L2u7yOOzEYIu-hq-2" value="" style="rounded=0;whiteSpace=wrap;html=1;" vertex="1" parent="8m-J2L2u7yOOzEYIu-hq-6">
          <mxGeometry width="80" height="30" as="geometry" />
        </mxCell>
        <mxCell id="8m-J2L2u7yOOzEYIu-hq-4" value="79" style="rounded=0;whiteSpace=wrap;html=1;" vertex="1" parent="8m-J2L2u7yOOzEYIu-hq-6">
          <mxGeometry width="40" height="30" as="geometry" />
        </mxCell>
        <mxCell id="8m-J2L2u7yOOzEYIu-hq-5" value="14" style="rounded=0;whiteSpace=wrap;html=1;" vertex="1" parent="8m-J2L2u7yOOzEYIu-hq-6">
          <mxGeometry x="40" width="40" height="30" as="geometry" />
        </mxCell>
        <mxCell id="8m-J2L2u7yOOzEYIu-hq-7" value="" style="group" vertex="1" connectable="0" parent="1">
          <mxGeometry x="250" y="130" width="80" height="30" as="geometry" />
        </mxCell>
        <mxCell id="8m-J2L2u7yOOzEYIu-hq-8" value="" style="rounded=0;whiteSpace=wrap;html=1;" vertex="1" parent="8m-J2L2u7yOOzEYIu-hq-7">
          <mxGeometry width="80" height="30" as="geometry" />
        </mxCell>
        <mxCell id="8m-J2L2u7yOOzEYIu-hq-9" value="55" style="rounded=0;whiteSpace=wrap;html=1;" vertex="1" parent="8m-J2L2u7yOOzEYIu-hq-7">
          <mxGeometry width="40" height="30" as="geometry" />
        </mxCell>
        <mxCell id="8m-J2L2u7yOOzEYIu-hq-10" value="13" style="rounded=0;whiteSpace=wrap;html=1;" vertex="1" parent="8m-J2L2u7yOOzEYIu-hq-7">
          <mxGeometry x="40" width="40" height="30" as="geometry" />
        </mxCell>
        <mxCell id="8m-J2L2u7yOOzEYIu-hq-29" style="edgeStyle=orthogonalEdgeStyle;rounded=0;orthogonalLoop=1;jettySize=auto;html=1;exitX=0;exitY=1;exitDx=0;exitDy=0;entryX=0.5;entryY=0;entryDx=0;entryDy=0;" edge="1" parent="1" source="8m-J2L2u7yOOzEYIu-hq-10" target="8m-J2L2u7yOOzEYIu-hq-27">
          <mxGeometry relative="1" as="geometry" />
        </mxCell>
        <mxCell id="8m-J2L2u7yOOzEYIu-hq-30" style="edgeStyle=orthogonalEdgeStyle;rounded=0;orthogonalLoop=1;jettySize=auto;html=1;exitX=0;exitY=1;exitDx=0;exitDy=0;entryX=0.5;entryY=0;entryDx=0;entryDy=0;" edge="1" parent="1" source="8m-J2L2u7yOOzEYIu-hq-5" target="8m-J2L2u7yOOzEYIu-hq-27">
          <mxGeometry relative="1" as="geometry" />
        </mxCell>
        <mxCell id="8m-J2L2u7yOOzEYIu-hq-31" value="" style="group" vertex="1" connectable="0" parent="1">
          <mxGeometry x="285" y="200" width="120" height="120" as="geometry" />
        </mxCell>
        <mxCell id="8m-J2L2u7yOOzEYIu-hq-25" value="" style="group" vertex="1" connectable="0" parent="8m-J2L2u7yOOzEYIu-hq-31">
          <mxGeometry y="20" width="120" height="80" as="geometry" />
        </mxCell>
        <mxCell id="8m-J2L2u7yOOzEYIu-hq-14" value="" style="rounded=0;whiteSpace=wrap;html=1;" vertex="1" parent="8m-J2L2u7yOOzEYIu-hq-25">
          <mxGeometry width="120" height="80" as="geometry" />
        </mxCell>
        <mxCell id="8m-J2L2u7yOOzEYIu-hq-15" value="seed-to-soil map" style="rounded=0;whiteSpace=wrap;html=1;" vertex="1" parent="8m-J2L2u7yOOzEYIu-hq-25">
          <mxGeometry width="120" height="20" as="geometry" />
        </mxCell>
        <mxCell id="8m-J2L2u7yOOzEYIu-hq-16" value="Left" style="rounded=0;whiteSpace=wrap;html=1;" vertex="1" parent="8m-J2L2u7yOOzEYIu-hq-25">
          <mxGeometry y="20" width="40" height="20" as="geometry" />
        </mxCell>
        <mxCell id="8m-J2L2u7yOOzEYIu-hq-17" value="R" style="rounded=0;whiteSpace=wrap;html=1;" vertex="1" parent="8m-J2L2u7yOOzEYIu-hq-25">
          <mxGeometry x="40" y="20" width="40" height="20" as="geometry" />
        </mxCell>
        <mxCell id="8m-J2L2u7yOOzEYIu-hq-18" value="diff" style="rounded=0;whiteSpace=wrap;html=1;" vertex="1" parent="8m-J2L2u7yOOzEYIu-hq-25">
          <mxGeometry x="80" y="20" width="40" height="20" as="geometry" />
        </mxCell>
        <mxCell id="8m-J2L2u7yOOzEYIu-hq-19" value="50" style="rounded=0;whiteSpace=wrap;html=1;" vertex="1" parent="8m-J2L2u7yOOzEYIu-hq-25">
          <mxGeometry y="40" width="40" height="20" as="geometry" />
        </mxCell>
        <mxCell id="8m-J2L2u7yOOzEYIu-hq-20" value="98" style="rounded=0;whiteSpace=wrap;html=1;" vertex="1" parent="8m-J2L2u7yOOzEYIu-hq-25">
          <mxGeometry y="60" width="40" height="20" as="geometry" />
        </mxCell>
        <mxCell id="8m-J2L2u7yOOzEYIu-hq-21" value="48" style="rounded=0;whiteSpace=wrap;html=1;" vertex="1" parent="8m-J2L2u7yOOzEYIu-hq-25">
          <mxGeometry x="40" y="40" width="40" height="20" as="geometry" />
        </mxCell>
        <mxCell id="8m-J2L2u7yOOzEYIu-hq-22" value="2" style="rounded=0;whiteSpace=wrap;html=1;" vertex="1" parent="8m-J2L2u7yOOzEYIu-hq-25">
          <mxGeometry x="40" y="60" width="40" height="20" as="geometry" />
        </mxCell>
        <mxCell id="8m-J2L2u7yOOzEYIu-hq-23" value="2" style="rounded=0;whiteSpace=wrap;html=1;" vertex="1" parent="8m-J2L2u7yOOzEYIu-hq-25">
          <mxGeometry x="80" y="40" width="40" height="20" as="geometry" />
        </mxCell>
        <mxCell id="8m-J2L2u7yOOzEYIu-hq-24" value="&amp;nbsp;-48" style="rounded=0;whiteSpace=wrap;html=1;" vertex="1" parent="8m-J2L2u7yOOzEYIu-hq-25">
          <mxGeometry x="80" y="60" width="40" height="20" as="geometry" />
        </mxCell>
        <mxCell id="8m-J2L2u7yOOzEYIu-hq-27" value="Input" style="rounded=0;whiteSpace=wrap;html=1;" vertex="1" parent="8m-J2L2u7yOOzEYIu-hq-31">
          <mxGeometry width="120" height="20" as="geometry" />
        </mxCell>
        <mxCell id="8m-J2L2u7yOOzEYIu-hq-28" value="Output" style="rounded=0;whiteSpace=wrap;html=1;" vertex="1" parent="8m-J2L2u7yOOzEYIu-hq-31">
          <mxGeometry y="100" width="120" height="20" as="geometry" />
        </mxCell>
        <mxCell id="8m-J2L2u7yOOzEYIu-hq-33" value="55 -&amp;gt; (55 + 13 -1)" style="rounded=0;whiteSpace=wrap;html=1;" vertex="1" parent="1">
          <mxGeometry x="480" y="200" width="100" height="20" as="geometry" />
        </mxCell>
        <mxCell id="8m-J2L2u7yOOzEYIu-hq-34" value="79 -&amp;gt; (79 + 14 -1)" style="rounded=0;whiteSpace=wrap;html=1;" vertex="1" parent="1">
          <mxGeometry x="580" y="200" width="100" height="20" as="geometry" />
        </mxCell>
        <mxCell id="8m-J2L2u7yOOzEYIu-hq-35" value="55 &amp;gt;= 50" style="rounded=0;whiteSpace=wrap;html=1;" vertex="1" parent="1">
          <mxGeometry x="480" y="220" width="100" height="20" as="geometry" />
        </mxCell>
        <mxCell id="8m-J2L2u7yOOzEYIu-hq-36" value="67 &amp;lt;= (50 + 48 -1)" style="rounded=0;whiteSpace=wrap;html=1;" vertex="1" parent="1">
          <mxGeometry x="480" y="240" width="100" height="20" as="geometry" />
        </mxCell>
        <mxCell id="8m-J2L2u7yOOzEYIu-hq-37" value="55 += 2" style="rounded=0;whiteSpace=wrap;html=1;" vertex="1" parent="1">
          <mxGeometry x="480" y="260" width="100" height="20" as="geometry" />
        </mxCell>
        <mxCell id="8m-J2L2u7yOOzEYIu-hq-38" value="67 += 2" style="rounded=0;whiteSpace=wrap;html=1;" vertex="1" parent="1">
          <mxGeometry x="480" y="280" width="100" height="20" as="geometry" />
        </mxCell>
        <mxCell id="8m-J2L2u7yOOzEYIu-hq-39" value="57 -&amp;gt; 69" style="rounded=0;whiteSpace=wrap;html=1;" vertex="1" parent="1">
          <mxGeometry x="480" y="300" width="100" height="20" as="geometry" />
        </mxCell>
        <mxCell id="8m-J2L2u7yOOzEYIu-hq-40" value="79 &amp;gt;= 50" style="rounded=0;whiteSpace=wrap;html=1;" vertex="1" parent="1">
          <mxGeometry x="580" y="220" width="100" height="20" as="geometry" />
        </mxCell>
        <mxCell id="8m-J2L2u7yOOzEYIu-hq-41" value="92 &amp;lt;= (50 + 48 -1)" style="rounded=0;whiteSpace=wrap;html=1;" vertex="1" parent="1">
          <mxGeometry x="580" y="240" width="100" height="20" as="geometry" />
        </mxCell>
        <mxCell id="8m-J2L2u7yOOzEYIu-hq-42" value="79 += 2" style="rounded=0;whiteSpace=wrap;html=1;" vertex="1" parent="1">
          <mxGeometry x="580" y="260" width="100" height="20" as="geometry" />
        </mxCell>
        <mxCell id="8m-J2L2u7yOOzEYIu-hq-43" value="92 += 2" style="rounded=0;whiteSpace=wrap;html=1;" vertex="1" parent="1">
          <mxGeometry x="580" y="280" width="100" height="20" as="geometry" />
        </mxCell>
        <mxCell id="8m-J2L2u7yOOzEYIu-hq-44" value="81 -&amp;gt; 94" style="rounded=0;whiteSpace=wrap;html=1;" vertex="1" parent="1">
          <mxGeometry x="580" y="300" width="100" height="20" as="geometry" />
        </mxCell>
        <mxCell id="8m-J2L2u7yOOzEYIu-hq-45" value="" style="group" vertex="1" connectable="0" parent="1">
          <mxGeometry x="250" y="360" width="80" height="30" as="geometry" />
        </mxCell>
        <mxCell id="8m-J2L2u7yOOzEYIu-hq-46" value="" style="rounded=0;whiteSpace=wrap;html=1;" vertex="1" parent="8m-J2L2u7yOOzEYIu-hq-45">
          <mxGeometry width="80" height="30" as="geometry" />
        </mxCell>
        <mxCell id="8m-J2L2u7yOOzEYIu-hq-47" value="57" style="rounded=0;whiteSpace=wrap;html=1;" vertex="1" parent="8m-J2L2u7yOOzEYIu-hq-45">
          <mxGeometry width="40" height="30" as="geometry" />
        </mxCell>
        <mxCell id="8m-J2L2u7yOOzEYIu-hq-48" value="13" style="rounded=0;whiteSpace=wrap;html=1;" vertex="1" parent="8m-J2L2u7yOOzEYIu-hq-45">
          <mxGeometry x="40" width="40" height="30" as="geometry" />
        </mxCell>
        <mxCell id="8m-J2L2u7yOOzEYIu-hq-49" style="edgeStyle=orthogonalEdgeStyle;rounded=0;orthogonalLoop=1;jettySize=auto;html=1;entryX=0;entryY=0;entryDx=0;entryDy=0;" edge="1" parent="1" source="8m-J2L2u7yOOzEYIu-hq-28" target="8m-J2L2u7yOOzEYIu-hq-48">
          <mxGeometry relative="1" as="geometry" />
        </mxCell>
        <mxCell id="8m-J2L2u7yOOzEYIu-hq-50" value="" style="group" vertex="1" connectable="0" parent="1">
          <mxGeometry x="360" y="360" width="80" height="30" as="geometry" />
        </mxCell>
        <mxCell id="8m-J2L2u7yOOzEYIu-hq-51" value="" style="rounded=0;whiteSpace=wrap;html=1;" vertex="1" parent="8m-J2L2u7yOOzEYIu-hq-50">
          <mxGeometry width="80" height="30" as="geometry" />
        </mxCell>
        <mxCell id="8m-J2L2u7yOOzEYIu-hq-52" value="81" style="rounded=0;whiteSpace=wrap;html=1;" vertex="1" parent="8m-J2L2u7yOOzEYIu-hq-50">
          <mxGeometry width="40" height="30" as="geometry" />
        </mxCell>
        <mxCell id="8m-J2L2u7yOOzEYIu-hq-74" style="edgeStyle=orthogonalEdgeStyle;rounded=0;orthogonalLoop=1;jettySize=auto;html=1;exitX=0;exitY=1;exitDx=0;exitDy=0;" edge="1" parent="8m-J2L2u7yOOzEYIu-hq-50" source="8m-J2L2u7yOOzEYIu-hq-53">
          <mxGeometry relative="1" as="geometry">
            <mxPoint x="-10" y="70" as="targetPoint" />
          </mxGeometry>
        </mxCell>
        <mxCell id="8m-J2L2u7yOOzEYIu-hq-53" value="14" style="rounded=0;whiteSpace=wrap;html=1;" vertex="1" parent="8m-J2L2u7yOOzEYIu-hq-50">
          <mxGeometry x="40" width="40" height="30" as="geometry" />
        </mxCell>
        <mxCell id="8m-J2L2u7yOOzEYIu-hq-54" style="edgeStyle=orthogonalEdgeStyle;rounded=0;orthogonalLoop=1;jettySize=auto;html=1;entryX=1;entryY=0;entryDx=0;entryDy=0;" edge="1" parent="1" source="8m-J2L2u7yOOzEYIu-hq-28" target="8m-J2L2u7yOOzEYIu-hq-52">
          <mxGeometry relative="1" as="geometry" />
        </mxCell>
        <mxCell id="8m-J2L2u7yOOzEYIu-hq-72" style="edgeStyle=orthogonalEdgeStyle;rounded=0;orthogonalLoop=1;jettySize=auto;html=1;exitX=0;exitY=1;exitDx=0;exitDy=0;entryX=0.5;entryY=0;entryDx=0;entryDy=0;" edge="1" parent="1" source="8m-J2L2u7yOOzEYIu-hq-48" target="8m-J2L2u7yOOzEYIu-hq-68">
          <mxGeometry relative="1" as="geometry" />
        </mxCell>
        <mxCell id="8m-J2L2u7yOOzEYIu-hq-97" style="edgeStyle=orthogonalEdgeStyle;rounded=0;orthogonalLoop=1;jettySize=auto;html=1;entryX=0;entryY=0;entryDx=0;entryDy=0;" edge="1" parent="1" source="8m-J2L2u7yOOzEYIu-hq-69" target="8m-J2L2u7yOOzEYIu-hq-91">
          <mxGeometry relative="1" as="geometry" />
        </mxCell>
        <mxCell id="8m-J2L2u7yOOzEYIu-hq-98" style="edgeStyle=orthogonalEdgeStyle;rounded=0;orthogonalLoop=1;jettySize=auto;html=1;entryX=1;entryY=0;entryDx=0;entryDy=0;" edge="1" parent="1" source="8m-J2L2u7yOOzEYIu-hq-69" target="8m-J2L2u7yOOzEYIu-hq-94">
          <mxGeometry relative="1" as="geometry" />
        </mxCell>
        <mxCell id="8m-J2L2u7yOOzEYIu-hq-69" value="Output" style="rounded=0;whiteSpace=wrap;html=1;" vertex="1" parent="1">
          <mxGeometry x="290" y="550" width="120" height="20" as="geometry" />
        </mxCell>
        <mxCell id="8m-J2L2u7yOOzEYIu-hq-68" value="Input" style="rounded=0;whiteSpace=wrap;html=1;" vertex="1" parent="1">
          <mxGeometry x="290" y="430" width="120" height="20" as="geometry" />
        </mxCell>
        <mxCell id="8m-J2L2u7yOOzEYIu-hq-75" value="52" style="rounded=0;whiteSpace=wrap;html=1;" vertex="1" parent="1">
          <mxGeometry x="290" y="530" width="40" height="20" as="geometry" />
        </mxCell>
        <mxCell id="8m-J2L2u7yOOzEYIu-hq-76" value="2" style="rounded=0;whiteSpace=wrap;html=1;" vertex="1" parent="1">
          <mxGeometry x="330" y="530" width="40" height="20" as="geometry" />
        </mxCell>
        <mxCell id="8m-J2L2u7yOOzEYIu-hq-77" value="-15" style="rounded=0;whiteSpace=wrap;html=1;" vertex="1" parent="1">
          <mxGeometry x="370" y="530" width="40" height="20" as="geometry" />
        </mxCell>
        <mxCell id="8m-J2L2u7yOOzEYIu-hq-58" value="soil-to-fert map" style="rounded=0;whiteSpace=wrap;html=1;" vertex="1" parent="1">
          <mxGeometry x="290" y="450" width="120" height="20" as="geometry" />
        </mxCell>
        <mxCell id="8m-J2L2u7yOOzEYIu-hq-59" value="Left" style="rounded=0;whiteSpace=wrap;html=1;" vertex="1" parent="1">
          <mxGeometry x="290" y="470" width="40" height="20" as="geometry" />
        </mxCell>
        <mxCell id="8m-J2L2u7yOOzEYIu-hq-60" value="R" style="rounded=0;whiteSpace=wrap;html=1;" vertex="1" parent="1">
          <mxGeometry x="330" y="470" width="40" height="20" as="geometry" />
        </mxCell>
        <mxCell id="8m-J2L2u7yOOzEYIu-hq-61" value="diff" style="rounded=0;whiteSpace=wrap;html=1;" vertex="1" parent="1">
          <mxGeometry x="370" y="470" width="40" height="20" as="geometry" />
        </mxCell>
        <mxCell id="8m-J2L2u7yOOzEYIu-hq-62" value="0" style="rounded=0;whiteSpace=wrap;html=1;" vertex="1" parent="1">
          <mxGeometry x="290" y="490" width="40" height="20" as="geometry" />
        </mxCell>
        <mxCell id="8m-J2L2u7yOOzEYIu-hq-63" value="15" style="rounded=0;whiteSpace=wrap;html=1;" vertex="1" parent="1">
          <mxGeometry x="290" y="510" width="40" height="20" as="geometry" />
        </mxCell>
        <mxCell id="8m-J2L2u7yOOzEYIu-hq-65" value="37" style="rounded=0;whiteSpace=wrap;html=1;" vertex="1" parent="1">
          <mxGeometry x="330" y="510" width="40" height="20" as="geometry" />
        </mxCell>
        <mxCell id="8m-J2L2u7yOOzEYIu-hq-66" value="39" style="rounded=0;whiteSpace=wrap;html=1;" vertex="1" parent="1">
          <mxGeometry x="370" y="490" width="40" height="20" as="geometry" />
        </mxCell>
        <mxCell id="8m-J2L2u7yOOzEYIu-hq-67" value="-15" style="rounded=0;whiteSpace=wrap;html=1;" vertex="1" parent="1">
          <mxGeometry x="370" y="510" width="40" height="20" as="geometry" />
        </mxCell>
        <mxCell id="8m-J2L2u7yOOzEYIu-hq-79" value="15" style="rounded=0;whiteSpace=wrap;html=1;" vertex="1" parent="1">
          <mxGeometry x="330" y="490" width="40" height="20" as="geometry" />
        </mxCell>
        <mxCell id="8m-J2L2u7yOOzEYIu-hq-80" value="57 -&amp;gt; &amp;nbsp;69" style="rounded=0;whiteSpace=wrap;html=1;" vertex="1" parent="1">
          <mxGeometry x="480" y="440" width="100" height="20" as="geometry" />
        </mxCell>
        <mxCell id="8m-J2L2u7yOOzEYIu-hq-81" value="81 -&amp;gt; 94" style="rounded=0;whiteSpace=wrap;html=1;" vertex="1" parent="1">
          <mxGeometry x="580" y="440" width="100" height="20" as="geometry" />
        </mxCell>
        <mxCell id="8m-J2L2u7yOOzEYIu-hq-82" value="57 &amp;gt; 53" style="rounded=0;whiteSpace=wrap;html=1;" vertex="1" parent="1">
          <mxGeometry x="480" y="460" width="100" height="20" as="geometry" />
        </mxCell>
        <mxCell id="8m-J2L2u7yOOzEYIu-hq-83" value="57 = 57" style="rounded=0;whiteSpace=wrap;html=1;" vertex="1" parent="1">
          <mxGeometry x="480" y="480" width="100" height="20" as="geometry" />
        </mxCell>
        <mxCell id="8m-J2L2u7yOOzEYIu-hq-84" value="69 = 69&lt;br&gt;" style="rounded=0;whiteSpace=wrap;html=1;" vertex="1" parent="1">
          <mxGeometry x="480" y="500" width="100" height="20" as="geometry" />
        </mxCell>
        <mxCell id="8m-J2L2u7yOOzEYIu-hq-86" value="57 -&amp;gt; &amp;nbsp;69" style="rounded=0;whiteSpace=wrap;html=1;" vertex="1" parent="1">
          <mxGeometry x="480" y="520" width="100" height="20" as="geometry" />
        </mxCell>
        <mxCell id="8m-J2L2u7yOOzEYIu-hq-87" value="81 -&amp;gt; 94" style="rounded=0;whiteSpace=wrap;html=1;" vertex="1" parent="1">
          <mxGeometry x="580" y="520" width="100" height="20" as="geometry" />
        </mxCell>
        <mxCell id="8m-J2L2u7yOOzEYIu-hq-88" value="" style="group" vertex="1" connectable="0" parent="1">
          <mxGeometry x="260" y="610" width="80" height="30" as="geometry" />
        </mxCell>
        <mxCell id="8m-J2L2u7yOOzEYIu-hq-89" value="" style="rounded=0;whiteSpace=wrap;html=1;" vertex="1" parent="8m-J2L2u7yOOzEYIu-hq-88">
          <mxGeometry width="80" height="30" as="geometry" />
        </mxCell>
        <mxCell id="8m-J2L2u7yOOzEYIu-hq-90" value="57" style="rounded=0;whiteSpace=wrap;html=1;" vertex="1" parent="8m-J2L2u7yOOzEYIu-hq-88">
          <mxGeometry width="40" height="30" as="geometry" />
        </mxCell>
        <mxCell id="8m-J2L2u7yOOzEYIu-hq-91" value="13" style="rounded=0;whiteSpace=wrap;html=1;" vertex="1" parent="8m-J2L2u7yOOzEYIu-hq-88">
          <mxGeometry x="40" width="40" height="30" as="geometry" />
        </mxCell>
        <mxCell id="8m-J2L2u7yOOzEYIu-hq-92" value="" style="group" vertex="1" connectable="0" parent="1">
          <mxGeometry x="360" y="610" width="80" height="30" as="geometry" />
        </mxCell>
        <mxCell id="8m-J2L2u7yOOzEYIu-hq-93" value="" style="rounded=0;whiteSpace=wrap;html=1;" vertex="1" parent="8m-J2L2u7yOOzEYIu-hq-92">
          <mxGeometry width="80" height="30" as="geometry" />
        </mxCell>
        <mxCell id="8m-J2L2u7yOOzEYIu-hq-94" value="81" style="rounded=0;whiteSpace=wrap;html=1;" vertex="1" parent="8m-J2L2u7yOOzEYIu-hq-92">
          <mxGeometry width="40" height="30" as="geometry" />
        </mxCell>
        <mxCell id="8m-J2L2u7yOOzEYIu-hq-96" value="14" style="rounded=0;whiteSpace=wrap;html=1;" vertex="1" parent="8m-J2L2u7yOOzEYIu-hq-92">
          <mxGeometry x="40" width="40" height="30" as="geometry" />
        </mxCell>
        <mxCell id="8m-J2L2u7yOOzEYIu-hq-153" style="edgeStyle=orthogonalEdgeStyle;rounded=0;orthogonalLoop=1;jettySize=auto;html=1;exitX=0.5;exitY=1;exitDx=0;exitDy=0;entryX=0;entryY=0;entryDx=0;entryDy=0;" edge="1" parent="1" source="8m-J2L2u7yOOzEYIu-hq-99" target="8m-J2L2u7yOOzEYIu-hq-142">
          <mxGeometry relative="1" as="geometry" />
        </mxCell>
        <mxCell id="8m-J2L2u7yOOzEYIu-hq-154" style="edgeStyle=orthogonalEdgeStyle;rounded=0;orthogonalLoop=1;jettySize=auto;html=1;exitX=0.5;exitY=1;exitDx=0;exitDy=0;entryX=0;entryY=0;entryDx=0;entryDy=0;" edge="1" parent="1" source="8m-J2L2u7yOOzEYIu-hq-99" target="8m-J2L2u7yOOzEYIu-hq-146">
          <mxGeometry relative="1" as="geometry" />
        </mxCell>
        <mxCell id="8m-J2L2u7yOOzEYIu-hq-155" style="edgeStyle=orthogonalEdgeStyle;rounded=0;orthogonalLoop=1;jettySize=auto;html=1;exitX=0.5;exitY=1;exitDx=0;exitDy=0;entryX=1;entryY=0;entryDx=0;entryDy=0;" edge="1" parent="1" source="8m-J2L2u7yOOzEYIu-hq-99" target="8m-J2L2u7yOOzEYIu-hq-149">
          <mxGeometry relative="1" as="geometry" />
        </mxCell>
        <mxCell id="8m-J2L2u7yOOzEYIu-hq-99" value="Output" style="rounded=0;whiteSpace=wrap;html=1;" vertex="1" parent="1">
          <mxGeometry x="290" y="820" width="120" height="20" as="geometry" />
        </mxCell>
        <mxCell id="8m-J2L2u7yOOzEYIu-hq-100" value="Input" style="rounded=0;whiteSpace=wrap;html=1;" vertex="1" parent="1">
          <mxGeometry x="290" y="680" width="120" height="20" as="geometry" />
        </mxCell>
        <mxCell id="8m-J2L2u7yOOzEYIu-hq-101" value="11" style="rounded=0;whiteSpace=wrap;html=1;" vertex="1" parent="1">
          <mxGeometry x="290" y="780" width="40" height="20" as="geometry" />
        </mxCell>
        <mxCell id="8m-J2L2u7yOOzEYIu-hq-102" value="42" style="rounded=0;whiteSpace=wrap;html=1;" vertex="1" parent="1">
          <mxGeometry x="330" y="780" width="40" height="20" as="geometry" />
        </mxCell>
        <mxCell id="8m-J2L2u7yOOzEYIu-hq-103" value="-11" style="rounded=0;whiteSpace=wrap;html=1;" vertex="1" parent="1">
          <mxGeometry x="370" y="780" width="40" height="20" as="geometry" />
        </mxCell>
        <mxCell id="8m-J2L2u7yOOzEYIu-hq-104" value="fert-to-water &amp;nbsp;map" style="rounded=0;whiteSpace=wrap;html=1;" vertex="1" parent="1">
          <mxGeometry x="290" y="700" width="120" height="20" as="geometry" />
        </mxCell>
        <mxCell id="8m-J2L2u7yOOzEYIu-hq-105" value="Left" style="rounded=0;whiteSpace=wrap;html=1;" vertex="1" parent="1">
          <mxGeometry x="290" y="720" width="40" height="20" as="geometry" />
        </mxCell>
        <mxCell id="8m-J2L2u7yOOzEYIu-hq-106" value="R" style="rounded=0;whiteSpace=wrap;html=1;" vertex="1" parent="1">
          <mxGeometry x="330" y="720" width="40" height="20" as="geometry" />
        </mxCell>
        <mxCell id="8m-J2L2u7yOOzEYIu-hq-107" value="diff" style="rounded=0;whiteSpace=wrap;html=1;" vertex="1" parent="1">
          <mxGeometry x="370" y="720" width="40" height="20" as="geometry" />
        </mxCell>
        <mxCell id="8m-J2L2u7yOOzEYIu-hq-108" value="0" style="rounded=0;whiteSpace=wrap;html=1;" vertex="1" parent="1">
          <mxGeometry x="290" y="740" width="40" height="20" as="geometry" />
        </mxCell>
        <mxCell id="8m-J2L2u7yOOzEYIu-hq-109" value="7" style="rounded=0;whiteSpace=wrap;html=1;" vertex="1" parent="1">
          <mxGeometry x="290" y="760" width="40" height="20" as="geometry" />
        </mxCell>
        <mxCell id="8m-J2L2u7yOOzEYIu-hq-110" value="4" style="rounded=0;whiteSpace=wrap;html=1;" vertex="1" parent="1">
          <mxGeometry x="330" y="760" width="40" height="20" as="geometry" />
        </mxCell>
        <mxCell id="8m-J2L2u7yOOzEYIu-hq-111" value="42" style="rounded=0;whiteSpace=wrap;html=1;" vertex="1" parent="1">
          <mxGeometry x="370" y="740" width="40" height="20" as="geometry" />
        </mxCell>
        <mxCell id="8m-J2L2u7yOOzEYIu-hq-112" value="50" style="rounded=0;whiteSpace=wrap;html=1;" vertex="1" parent="1">
          <mxGeometry x="370" y="760" width="40" height="20" as="geometry" />
        </mxCell>
        <mxCell id="8m-J2L2u7yOOzEYIu-hq-113" value="7" style="rounded=0;whiteSpace=wrap;html=1;" vertex="1" parent="1">
          <mxGeometry x="330" y="740" width="40" height="20" as="geometry" />
        </mxCell>
        <mxCell id="8m-J2L2u7yOOzEYIu-hq-116" style="edgeStyle=orthogonalEdgeStyle;rounded=0;orthogonalLoop=1;jettySize=auto;html=1;exitX=0;exitY=1;exitDx=0;exitDy=0;entryX=0.5;entryY=0;entryDx=0;entryDy=0;" edge="1" parent="1" source="8m-J2L2u7yOOzEYIu-hq-91" target="8m-J2L2u7yOOzEYIu-hq-100">
          <mxGeometry relative="1" as="geometry" />
        </mxCell>
        <mxCell id="8m-J2L2u7yOOzEYIu-hq-117" style="edgeStyle=orthogonalEdgeStyle;rounded=0;orthogonalLoop=1;jettySize=auto;html=1;exitX=1;exitY=1;exitDx=0;exitDy=0;entryX=0.5;entryY=0;entryDx=0;entryDy=0;" edge="1" parent="1" source="8m-J2L2u7yOOzEYIu-hq-94" target="8m-J2L2u7yOOzEYIu-hq-100">
          <mxGeometry relative="1" as="geometry" />
        </mxCell>
        <mxCell id="8m-J2L2u7yOOzEYIu-hq-118" value="53" style="rounded=0;whiteSpace=wrap;html=1;" vertex="1" parent="1">
          <mxGeometry x="290" y="800" width="40" height="20" as="geometry" />
        </mxCell>
        <mxCell id="8m-J2L2u7yOOzEYIu-hq-119" value="8" style="rounded=0;whiteSpace=wrap;html=1;" vertex="1" parent="1">
          <mxGeometry x="330" y="800" width="40" height="20" as="geometry" />
        </mxCell>
        <mxCell id="8m-J2L2u7yOOzEYIu-hq-120" value="-4" style="rounded=0;whiteSpace=wrap;html=1;" vertex="1" parent="1">
          <mxGeometry x="370" y="800" width="40" height="20" as="geometry" />
        </mxCell>
        <mxCell id="8m-J2L2u7yOOzEYIu-hq-121" value="57 -&amp;gt; 69" style="rounded=0;whiteSpace=wrap;html=1;" vertex="1" parent="1">
          <mxGeometry x="480" y="680" width="80" height="20" as="geometry" />
        </mxCell>
        <mxCell id="8m-J2L2u7yOOzEYIu-hq-122" value="57 &amp;gt;= 53" style="rounded=0;whiteSpace=wrap;html=1;" vertex="1" parent="1">
          <mxGeometry x="480" y="700" width="80" height="20" as="geometry" />
        </mxCell>
        <mxCell id="8m-J2L2u7yOOzEYIu-hq-123" value="69 &amp;gt; 60" style="rounded=0;whiteSpace=wrap;html=1;" vertex="1" parent="1">
          <mxGeometry x="480" y="720" width="80" height="20" as="geometry" />
        </mxCell>
        <mxCell id="8m-J2L2u7yOOzEYIu-hq-124" value="60 == 60" style="rounded=0;whiteSpace=wrap;html=1;" vertex="1" parent="1">
          <mxGeometry x="480" y="740" width="80" height="20" as="geometry" />
        </mxCell>
        <mxCell id="8m-J2L2u7yOOzEYIu-hq-125" value="61 &amp;gt; 60" style="rounded=0;whiteSpace=wrap;html=1;" vertex="1" parent="1">
          <mxGeometry x="560" y="740" width="80" height="20" as="geometry" />
        </mxCell>
        <mxCell id="8m-J2L2u7yOOzEYIu-hq-126" value="69 &amp;gt; 60" style="rounded=0;whiteSpace=wrap;html=1;" vertex="1" parent="1">
          <mxGeometry x="560" y="760" width="80" height="20" as="geometry" />
        </mxCell>
        <mxCell id="8m-J2L2u7yOOzEYIu-hq-127" value="57 -= 4" style="rounded=0;whiteSpace=wrap;html=1;" vertex="1" parent="1">
          <mxGeometry x="480" y="760" width="80" height="20" as="geometry" />
        </mxCell>
        <mxCell id="8m-J2L2u7yOOzEYIu-hq-128" value="60 -= 4&lt;br&gt;" style="rounded=0;whiteSpace=wrap;html=1;" vertex="1" parent="1">
          <mxGeometry x="480" y="780" width="80" height="20" as="geometry" />
        </mxCell>
        <mxCell id="8m-J2L2u7yOOzEYIu-hq-129" value="53 -&amp;gt; 56" style="rounded=0;whiteSpace=wrap;html=1;" vertex="1" parent="1">
          <mxGeometry x="480" y="800" width="80" height="20" as="geometry" />
        </mxCell>
        <mxCell id="8m-J2L2u7yOOzEYIu-hq-130" value="61 = 61" style="rounded=0;whiteSpace=wrap;html=1;" vertex="1" parent="1">
          <mxGeometry x="560" y="780" width="80" height="20" as="geometry" />
        </mxCell>
        <mxCell id="8m-J2L2u7yOOzEYIu-hq-131" value="69 = 69" style="rounded=0;whiteSpace=wrap;html=1;" vertex="1" parent="1">
          <mxGeometry x="560" y="800" width="80" height="20" as="geometry" />
        </mxCell>
        <mxCell id="8m-J2L2u7yOOzEYIu-hq-133" value="61 -&amp;gt; 69" style="rounded=0;whiteSpace=wrap;html=1;" vertex="1" parent="1">
          <mxGeometry x="560" y="820" width="80" height="20" as="geometry" />
        </mxCell>
        <mxCell id="8m-J2L2u7yOOzEYIu-hq-134" value="81 -&amp;gt; 94" style="rounded=0;whiteSpace=wrap;html=1;" vertex="1" parent="1">
          <mxGeometry x="640" y="680" width="80" height="20" as="geometry" />
        </mxCell>
        <mxCell id="8m-J2L2u7yOOzEYIu-hq-135" value="81 &amp;gt; map" style="rounded=0;whiteSpace=wrap;html=1;" vertex="1" parent="1">
          <mxGeometry x="640" y="700" width="80" height="20" as="geometry" />
        </mxCell>
        <mxCell id="8m-J2L2u7yOOzEYIu-hq-136" value="81 = 81" style="rounded=0;whiteSpace=wrap;html=1;" vertex="1" parent="1">
          <mxGeometry x="640" y="720" width="80" height="20" as="geometry" />
        </mxCell>
        <mxCell id="8m-J2L2u7yOOzEYIu-hq-137" value="94 = 94&lt;br&gt;" style="rounded=0;whiteSpace=wrap;html=1;" vertex="1" parent="1">
          <mxGeometry x="640" y="740" width="80" height="20" as="geometry" />
        </mxCell>
        <mxCell id="8m-J2L2u7yOOzEYIu-hq-138" value="81 -&amp;gt; 94" style="rounded=0;whiteSpace=wrap;html=1;" vertex="1" parent="1">
          <mxGeometry x="640" y="760" width="80" height="20" as="geometry" />
        </mxCell>
        <mxCell id="8m-J2L2u7yOOzEYIu-hq-139" value="" style="group" vertex="1" connectable="0" parent="1">
          <mxGeometry x="210" y="880" width="80" height="30" as="geometry" />
        </mxCell>
        <mxCell id="8m-J2L2u7yOOzEYIu-hq-140" value="" style="rounded=0;whiteSpace=wrap;html=1;" vertex="1" parent="8m-J2L2u7yOOzEYIu-hq-139">
          <mxGeometry width="80" height="30" as="geometry" />
        </mxCell>
        <mxCell id="8m-J2L2u7yOOzEYIu-hq-141" value="53" style="rounded=0;whiteSpace=wrap;html=1;" vertex="1" parent="8m-J2L2u7yOOzEYIu-hq-139">
          <mxGeometry width="40" height="30" as="geometry" />
        </mxCell>
        <mxCell id="8m-J2L2u7yOOzEYIu-hq-142" value="4" style="rounded=0;whiteSpace=wrap;html=1;" vertex="1" parent="8m-J2L2u7yOOzEYIu-hq-139">
          <mxGeometry x="40" width="40" height="30" as="geometry" />
        </mxCell>
        <mxCell id="8m-J2L2u7yOOzEYIu-hq-143" value="" style="group" vertex="1" connectable="0" parent="1">
          <mxGeometry x="310" y="880" width="80" height="30" as="geometry" />
        </mxCell>
        <mxCell id="8m-J2L2u7yOOzEYIu-hq-144" value="" style="rounded=0;whiteSpace=wrap;html=1;" vertex="1" parent="8m-J2L2u7yOOzEYIu-hq-143">
          <mxGeometry width="80" height="30" as="geometry" />
        </mxCell>
        <mxCell id="8m-J2L2u7yOOzEYIu-hq-145" value="61" style="rounded=0;whiteSpace=wrap;html=1;" vertex="1" parent="8m-J2L2u7yOOzEYIu-hq-143">
          <mxGeometry width="40" height="30" as="geometry" />
        </mxCell>
        <mxCell id="8m-J2L2u7yOOzEYIu-hq-175" style="edgeStyle=orthogonalEdgeStyle;rounded=0;orthogonalLoop=1;jettySize=auto;html=1;exitX=0;exitY=1;exitDx=0;exitDy=0;" edge="1" parent="8m-J2L2u7yOOzEYIu-hq-143" source="8m-J2L2u7yOOzEYIu-hq-146">
          <mxGeometry relative="1" as="geometry">
            <mxPoint x="40.45454545454538" y="70" as="targetPoint" />
          </mxGeometry>
        </mxCell>
        <mxCell id="8m-J2L2u7yOOzEYIu-hq-146" value="9" style="rounded=0;whiteSpace=wrap;html=1;" vertex="1" parent="8m-J2L2u7yOOzEYIu-hq-143">
          <mxGeometry x="40" width="40" height="30" as="geometry" />
        </mxCell>
        <mxCell id="8m-J2L2u7yOOzEYIu-hq-147" value="" style="group" vertex="1" connectable="0" parent="1">
          <mxGeometry x="410" y="880" width="80" height="30" as="geometry" />
        </mxCell>
        <mxCell id="8m-J2L2u7yOOzEYIu-hq-148" value="" style="rounded=0;whiteSpace=wrap;html=1;" vertex="1" parent="8m-J2L2u7yOOzEYIu-hq-147">
          <mxGeometry width="80" height="30" as="geometry" />
        </mxCell>
        <mxCell id="8m-J2L2u7yOOzEYIu-hq-176" style="edgeStyle=orthogonalEdgeStyle;rounded=0;orthogonalLoop=1;jettySize=auto;html=1;exitX=1;exitY=1;exitDx=0;exitDy=0;" edge="1" parent="8m-J2L2u7yOOzEYIu-hq-147" source="8m-J2L2u7yOOzEYIu-hq-149">
          <mxGeometry relative="1" as="geometry">
            <mxPoint x="-60" y="70" as="targetPoint" />
          </mxGeometry>
        </mxCell>
        <mxCell id="8m-J2L2u7yOOzEYIu-hq-149" value="81" style="rounded=0;whiteSpace=wrap;html=1;" vertex="1" parent="8m-J2L2u7yOOzEYIu-hq-147">
          <mxGeometry width="40" height="30" as="geometry" />
        </mxCell>
        <mxCell id="8m-J2L2u7yOOzEYIu-hq-150" value="14" style="rounded=0;whiteSpace=wrap;html=1;" vertex="1" parent="8m-J2L2u7yOOzEYIu-hq-147">
          <mxGeometry x="40" width="40" height="30" as="geometry" />
        </mxCell>
        <mxCell id="8m-J2L2u7yOOzEYIu-hq-156" value="Output" style="rounded=0;whiteSpace=wrap;html=1;" vertex="1" parent="1">
          <mxGeometry x="290" y="1050" width="120" height="20" as="geometry" />
        </mxCell>
        <mxCell id="8m-J2L2u7yOOzEYIu-hq-157" value="Input" style="rounded=0;whiteSpace=wrap;html=1;" vertex="1" parent="1">
          <mxGeometry x="290" y="950" width="120" height="20" as="geometry" />
        </mxCell>
        <mxCell id="8m-J2L2u7yOOzEYIu-hq-161" value="water-to-light map" style="rounded=0;whiteSpace=wrap;html=1;" vertex="1" parent="1">
          <mxGeometry x="290" y="970" width="120" height="20" as="geometry" />
        </mxCell>
        <mxCell id="8m-J2L2u7yOOzEYIu-hq-162" value="Left" style="rounded=0;whiteSpace=wrap;html=1;" vertex="1" parent="1">
          <mxGeometry x="290" y="990" width="40" height="20" as="geometry" />
        </mxCell>
        <mxCell id="8m-J2L2u7yOOzEYIu-hq-163" value="R" style="rounded=0;whiteSpace=wrap;html=1;" vertex="1" parent="1">
          <mxGeometry x="330" y="990" width="40" height="20" as="geometry" />
        </mxCell>
        <mxCell id="8m-J2L2u7yOOzEYIu-hq-164" value="diff" style="rounded=0;whiteSpace=wrap;html=1;" vertex="1" parent="1">
          <mxGeometry x="370" y="990" width="40" height="20" as="geometry" />
        </mxCell>
        <mxCell id="8m-J2L2u7yOOzEYIu-hq-165" value="18" style="rounded=0;whiteSpace=wrap;html=1;" vertex="1" parent="1">
          <mxGeometry x="290" y="1010" width="40" height="20" as="geometry" />
        </mxCell>
        <mxCell id="8m-J2L2u7yOOzEYIu-hq-166" value="25" style="rounded=0;whiteSpace=wrap;html=1;" vertex="1" parent="1">
          <mxGeometry x="290" y="1030" width="40" height="20" as="geometry" />
        </mxCell>
        <mxCell id="8m-J2L2u7yOOzEYIu-hq-167" value="70" style="rounded=0;whiteSpace=wrap;html=1;" vertex="1" parent="1">
          <mxGeometry x="330" y="1030" width="40" height="20" as="geometry" />
        </mxCell>
        <mxCell id="8m-J2L2u7yOOzEYIu-hq-168" value="70" style="rounded=0;whiteSpace=wrap;html=1;" vertex="1" parent="1">
          <mxGeometry x="370" y="1010" width="40" height="20" as="geometry" />
        </mxCell>
        <mxCell id="8m-J2L2u7yOOzEYIu-hq-169" value="-5" style="rounded=0;whiteSpace=wrap;html=1;" vertex="1" parent="1">
          <mxGeometry x="370" y="1030" width="40" height="20" as="geometry" />
        </mxCell>
        <mxCell id="8m-J2L2u7yOOzEYIu-hq-170" value="7" style="rounded=0;whiteSpace=wrap;html=1;" vertex="1" parent="1">
          <mxGeometry x="330" y="1010" width="40" height="20" as="geometry" />
        </mxCell>
        <mxCell id="8m-J2L2u7yOOzEYIu-hq-174" style="edgeStyle=orthogonalEdgeStyle;rounded=0;orthogonalLoop=1;jettySize=auto;html=1;exitX=1;exitY=1;exitDx=0;exitDy=0;entryX=0.5;entryY=0;entryDx=0;entryDy=0;" edge="1" parent="1" source="8m-J2L2u7yOOzEYIu-hq-141" target="8m-J2L2u7yOOzEYIu-hq-157">
          <mxGeometry relative="1" as="geometry" />
        </mxCell>
        <mxCell id="8m-J2L2u7yOOzEYIu-hq-179" value="Range" style="rounded=0;whiteSpace=wrap;html=1;fillColor=#f5f5f5;fontColor=#333333;strokeColor=#666666;" vertex="1" parent="1">
          <mxGeometry x="1040" y="90" width="190" height="20" as="geometry" />
        </mxCell>
        <mxCell id="8m-J2L2u7yOOzEYIu-hq-181" value="Map" style="rounded=0;whiteSpace=wrap;html=1;fillColor=#f5f5f5;fontColor=#333333;strokeColor=#666666;" vertex="1" parent="1">
          <mxGeometry x="1250" y="60" width="190" height="20" as="geometry" />
        </mxCell>
        <mxCell id="8m-J2L2u7yOOzEYIu-hq-182" value="Case 1" style="rounded=0;whiteSpace=wrap;html=1;fillColor=#f5f5f5;fontColor=#333333;strokeColor=#666666;" vertex="1" parent="1">
          <mxGeometry x="900" y="60" width="120" height="50" as="geometry" />
        </mxCell>
        <mxCell id="8m-J2L2u7yOOzEYIu-hq-183" value="Range" style="rounded=0;whiteSpace=wrap;html=1;fillColor=#dae8fc;strokeColor=#6c8ebf;" vertex="1" parent="1">
          <mxGeometry x="1040" y="170" width="190" height="20" as="geometry" />
        </mxCell>
        <mxCell id="8m-J2L2u7yOOzEYIu-hq-184" value="Map" style="rounded=0;whiteSpace=wrap;html=1;fillColor=#dae8fc;strokeColor=#6c8ebf;" vertex="1" parent="1">
          <mxGeometry x="1185" y="140" width="190" height="20" as="geometry" />
        </mxCell>
        <mxCell id="8m-J2L2u7yOOzEYIu-hq-185" value="Case 2" style="rounded=0;whiteSpace=wrap;html=1;fillColor=#dae8fc;strokeColor=#6c8ebf;" vertex="1" parent="1">
          <mxGeometry x="900" y="140" width="120" height="50" as="geometry" />
        </mxCell>
        <mxCell id="8m-J2L2u7yOOzEYIu-hq-186" value="Range" style="rounded=0;whiteSpace=wrap;html=1;fillColor=#d5e8d4;strokeColor=#82b366;" vertex="1" parent="1">
          <mxGeometry x="1040" y="265" width="385" height="20" as="geometry" />
        </mxCell>
        <mxCell id="8m-J2L2u7yOOzEYIu-hq-187" value="Map" style="rounded=0;whiteSpace=wrap;html=1;fillColor=#d5e8d4;strokeColor=#82b366;" vertex="1" parent="1">
          <mxGeometry x="1185" y="235" width="190" height="20" as="geometry" />
        </mxCell>
        <mxCell id="8m-J2L2u7yOOzEYIu-hq-188" value="Case 3" style="rounded=0;whiteSpace=wrap;html=1;fillColor=#d5e8d4;strokeColor=#82b366;" vertex="1" parent="1">
          <mxGeometry x="900" y="235" width="120" height="50" as="geometry" />
        </mxCell>
        <mxCell id="8m-J2L2u7yOOzEYIu-hq-189" value="Range" style="rounded=0;whiteSpace=wrap;html=1;fillColor=#ffe6cc;strokeColor=#d79b00;" vertex="1" parent="1">
          <mxGeometry x="1060" y="370" width="150" height="20" as="geometry" />
        </mxCell>
        <mxCell id="8m-J2L2u7yOOzEYIu-hq-190" value="Map" style="rounded=0;whiteSpace=wrap;html=1;fillColor=#ffe6cc;strokeColor=#d79b00;" vertex="1" parent="1">
          <mxGeometry x="1040" y="340" width="190" height="20" as="geometry" />
        </mxCell>
        <mxCell id="8m-J2L2u7yOOzEYIu-hq-191" value="Case 4" style="rounded=0;whiteSpace=wrap;html=1;fillColor=#ffe6cc;strokeColor=#d79b00;" vertex="1" parent="1">
          <mxGeometry x="900" y="340" width="120" height="50" as="geometry" />
        </mxCell>
        <mxCell id="8m-J2L2u7yOOzEYIu-hq-192" value="Range" style="rounded=0;whiteSpace=wrap;html=1;fillColor=#fff2cc;strokeColor=#d6b656;" vertex="1" parent="1">
          <mxGeometry x="1060" y="480" width="210" height="20" as="geometry" />
        </mxCell>
        <mxCell id="8m-J2L2u7yOOzEYIu-hq-193" value="Map" style="rounded=0;whiteSpace=wrap;html=1;fillColor=#fff2cc;strokeColor=#d6b656;" vertex="1" parent="1">
          <mxGeometry x="1040" y="450" width="190" height="20" as="geometry" />
        </mxCell>
        <mxCell id="8m-J2L2u7yOOzEYIu-hq-194" value="Case 5" style="rounded=0;whiteSpace=wrap;html=1;fillColor=#fff2cc;strokeColor=#d6b656;" vertex="1" parent="1">
          <mxGeometry x="900" y="450" width="120" height="50" as="geometry" />
        </mxCell>
        <mxCell id="8m-J2L2u7yOOzEYIu-hq-195" value="Range" style="rounded=0;whiteSpace=wrap;html=1;fillColor=#f8cecc;strokeColor=#b85450;" vertex="1" parent="1">
          <mxGeometry x="1240" y="580" width="210" height="20" as="geometry" />
        </mxCell>
        <mxCell id="8m-J2L2u7yOOzEYIu-hq-196" value="Map" style="rounded=0;whiteSpace=wrap;html=1;fillColor=#f8cecc;strokeColor=#b85450;" vertex="1" parent="1">
          <mxGeometry x="1040" y="550" width="190" height="20" as="geometry" />
        </mxCell>
        <mxCell id="8m-J2L2u7yOOzEYIu-hq-197" value="Case 6" style="rounded=0;whiteSpace=wrap;html=1;fillColor=#f8cecc;strokeColor=#b85450;" vertex="1" parent="1">
          <mxGeometry x="900" y="550" width="120" height="50" as="geometry" />
        </mxCell>
        <mxCell id="8m-J2L2u7yOOzEYIu-hq-198" value="." style="text;html=1;strokeColor=none;fillColor=none;align=center;verticalAlign=middle;whiteSpace=wrap;rounded=0;" vertex="1" parent="1">
          <mxGeometry x="320" y="1070" width="60" height="30" as="geometry" />
        </mxCell>
        <mxCell id="8m-J2L2u7yOOzEYIu-hq-199" value="." style="text;html=1;strokeColor=none;fillColor=none;align=center;verticalAlign=middle;whiteSpace=wrap;rounded=0;" vertex="1" parent="1">
          <mxGeometry x="320" y="1090" width="60" height="30" as="geometry" />
        </mxCell>
      </root>
    </mxGraphModel>
  </diagram>
</mxfile>
